<svg width="44" height="41" viewBox="0 0 44 41" fill="none" xmlns="http://www.w3.org/2000/svg">
<path fill-rule="evenodd" clip-rule="evenodd" d="M24.8413 27.3279C27.3939 27.3279 29.4716 29.1658 29.4716 31.4249V37.2351C29.4716 37.7206 29.9083 38.1097 30.468 38.121H34.5089C37.6933 38.121 40.282 35.843 40.282 33.0437V16.565C40.2671 15.6017 39.752 14.695 38.8679 14.0925L24.89 4.1607C23.0137 2.83659 20.389 2.83659 18.5064 4.16448L4.62395 14.0887C3.70594 14.7101 3.19076 15.6168 3.18016 16.5971V33.0437C3.18016 35.843 5.7688 38.121 8.9532 38.121H13.0323C13.6068 38.121 14.0733 37.7149 14.0733 37.2163C14.0733 37.1067 14.0881 36.9972 14.1135 36.8933V31.4249C14.1135 29.179 16.1785 27.343 18.712 27.3279H24.8413ZM34.5089 40.9544H30.4299C28.0935 40.9053 26.2914 39.2714 26.2914 37.2351V31.4249C26.2914 30.7279 25.6405 30.1613 24.8413 30.1613H18.7226C17.9403 30.165 17.2937 30.7336 17.2937 31.4249V37.2163C17.2937 37.3579 17.2725 37.4939 17.228 37.6224C16.999 39.4924 15.2054 40.9544 13.0323 40.9544H8.9532C4.01548 40.9544 0 37.4052 0 33.0437V16.5839C0.021201 14.7064 0.992209 12.9875 2.66921 11.856L16.5241 1.94882C19.5749 -0.204517 23.8257 -0.204517 26.8702 1.94504L40.8247 11.8617C42.4636 12.9743 43.4346 14.6894 43.4621 16.5443V33.0437C43.4621 37.4052 39.4467 40.9544 34.5089 40.9544Z" fill="white"/>
</svg>
